<mxfile host="65bd71144e">
    <diagram id="p9Xo1t0a47FILJVNUjI1" name="ページ1">
        <mxGraphModel dx="1456" dy="579" grid="1" gridSize="10" guides="1" tooltips="1" connect="1" arrows="1" fold="1" page="1" pageScale="1" pageWidth="827" pageHeight="1169" math="0" shadow="0">
            <root>
                <mxCell id="0"/>
                <mxCell id="1" parent="0"/>
                <mxCell id="2" value="" style="ellipse;whiteSpace=wrap;html=1;" parent="1" vertex="1">
                    <mxGeometry x="317.5" y="50" width="145" height="50" as="geometry"/>
                </mxCell>
                <mxCell id="3" value="ラズパイの電源を入れる" style="text;html=1;strokeColor=none;fillColor=none;align=center;verticalAlign=middle;whiteSpace=wrap;rounded=0;" parent="1" vertex="1">
                    <mxGeometry x="360" y="60" width="60" height="30" as="geometry"/>
                </mxCell>
                <mxCell id="4" value="" style="shape=process;whiteSpace=wrap;html=1;backgroundOutline=1;" parent="1" vertex="1">
                    <mxGeometry x="330" y="150" width="120" height="60" as="geometry"/>
                </mxCell>
                <mxCell id="18" style="edgeStyle=none;html=1;exitX=0.5;exitY=1;exitDx=0;exitDy=0;" parent="1" source="6" edge="1">
                    <mxGeometry relative="1" as="geometry">
                        <mxPoint x="390" y="280" as="targetPoint"/>
                        <Array as="points">
                            <mxPoint x="240" y="280"/>
                        </Array>
                    </mxGeometry>
                </mxCell>
                <mxCell id="6" value="" style="shape=process;whiteSpace=wrap;html=1;backgroundOutline=1;" parent="1" vertex="1">
                    <mxGeometry x="180" y="150" width="120" height="60" as="geometry"/>
                </mxCell>
                <mxCell id="8" value="main.pyを実行" style="text;html=1;strokeColor=none;fillColor=none;align=center;verticalAlign=middle;whiteSpace=wrap;rounded=0;" parent="1" vertex="1">
                    <mxGeometry x="360" y="165" width="60" height="30" as="geometry"/>
                </mxCell>
                <mxCell id="9" value="&lt;h1&gt;main.py&lt;/h1&gt;&lt;p&gt;パラシュートで機体を落下させてからgpsなどのセンサを使いゴールまで機体を動かすプログラム&lt;/p&gt;&lt;p&gt;走行プログラムという名前のファイルの中にある&lt;/p&gt;" style="text;html=1;strokeColor=none;fillColor=none;spacing=5;spacingTop=-20;whiteSpace=wrap;overflow=hidden;rounded=0;" parent="1" vertex="1">
                    <mxGeometry x="20" y="22.5" width="190" height="150" as="geometry"/>
                </mxCell>
                <mxCell id="10" value="send.pyを実行" style="text;html=1;strokeColor=none;fillColor=none;align=center;verticalAlign=middle;whiteSpace=wrap;rounded=0;" parent="1" vertex="1">
                    <mxGeometry x="210" y="165" width="60" height="30" as="geometry"/>
                </mxCell>
                <mxCell id="11" value="" style="endArrow=classic;html=1;" parent="1" edge="1">
                    <mxGeometry width="50" height="50" relative="1" as="geometry">
                        <mxPoint x="390" y="100" as="sourcePoint"/>
                        <mxPoint x="389.5" y="150" as="targetPoint"/>
                    </mxGeometry>
                </mxCell>
                <mxCell id="13" value="" style="ellipse;whiteSpace=wrap;html=1;" parent="1" vertex="1">
                    <mxGeometry x="317.5" y="370" width="145" height="50" as="geometry"/>
                </mxCell>
                <mxCell id="14" value="ラズパイの電源が切れる" style="text;html=1;strokeColor=none;fillColor=none;align=center;verticalAlign=middle;whiteSpace=wrap;rounded=0;" parent="1" vertex="1">
                    <mxGeometry x="360" y="380" width="60" height="30" as="geometry"/>
                </mxCell>
                <mxCell id="15" value="" style="endArrow=classic;html=1;exitX=0.5;exitY=1;exitDx=0;exitDy=0;" parent="1" source="4" edge="1">
                    <mxGeometry width="50" height="50" relative="1" as="geometry">
                        <mxPoint x="390" y="320" as="sourcePoint"/>
                        <mxPoint x="389.5" y="370" as="targetPoint"/>
                    </mxGeometry>
                </mxCell>
                <mxCell id="16" value="&lt;h1&gt;send.py&lt;/h1&gt;&lt;p&gt;gps、温湿度気圧、照度などのセンサで得た値をSDカード上にログとして残すとともにXbeeを使いPCに送信する&lt;/p&gt;" style="text;html=1;strokeColor=none;fillColor=none;spacing=5;spacingTop=-20;whiteSpace=wrap;overflow=hidden;rounded=0;" parent="1" vertex="1">
                    <mxGeometry x="20" y="212.5" width="190" height="120" as="geometry"/>
                </mxCell>
                <mxCell id="17" value="" style="endArrow=classic;html=1;entryX=0.5;entryY=0;entryDx=0;entryDy=0;" parent="1" target="6" edge="1">
                    <mxGeometry width="50" height="50" relative="1" as="geometry">
                        <mxPoint x="390" y="120" as="sourcePoint"/>
                        <mxPoint x="440" y="370" as="targetPoint"/>
                        <Array as="points">
                            <mxPoint x="240" y="120"/>
                        </Array>
                    </mxGeometry>
                </mxCell>
                <mxCell id="100" style="edgeStyle=none;html=1;exitX=1;exitY=0.25;exitDx=0;exitDy=0;entryX=0;entryY=0.25;entryDx=0;entryDy=0;" parent="1" source="19" target="99" edge="1">
                    <mxGeometry relative="1" as="geometry"/>
                </mxCell>
                <mxCell id="19" value="main.py&lt;br&gt;ゴールまで機体を移動させる&lt;br&gt;青い四角のセンサについてのログを機体に残す" style="rounded=0;whiteSpace=wrap;html=1;" parent="1" vertex="1">
                    <mxGeometry x="1449" y="147.5" width="261" height="60" as="geometry"/>
                </mxCell>
                <mxCell id="20" value="&lt;font style=&quot;font-size: 20px;&quot;&gt;プログラムの構成図&lt;/font&gt;" style="text;html=1;strokeColor=none;fillColor=none;align=center;verticalAlign=middle;whiteSpace=wrap;rounded=0;" parent="1" vertex="1">
                    <mxGeometry x="1571" y="82.5" width="230" height="30" as="geometry"/>
                </mxCell>
                <mxCell id="21" value="send.py&lt;br&gt;センサの値をXbeeを使いラズパイにログを残しPCに送信する" style="rounded=0;whiteSpace=wrap;html=1;" parent="1" vertex="1">
                    <mxGeometry x="1610" y="620" width="184" height="60" as="geometry"/>
                </mxCell>
                <mxCell id="25" style="edgeStyle=none;html=1;exitX=0.5;exitY=0;exitDx=0;exitDy=0;entryX=0.5;entryY=1;entryDx=0;entryDy=0;" parent="1" source="23" target="19" edge="1">
                    <mxGeometry relative="1" as="geometry"/>
                </mxCell>
                <mxCell id="49" style="edgeStyle=none;html=1;entryX=0.5;entryY=0;entryDx=0;entryDy=0;fontSize=12;exitX=0.5;exitY=1;exitDx=0;exitDy=0;startArrow=none;" parent="1" source="23" target="21" edge="1">
                    <mxGeometry relative="1" as="geometry">
                        <mxPoint x="1490" y="480" as="sourcePoint"/>
                    </mxGeometry>
                </mxCell>
                <mxCell id="23" value="DistanceAzimuth.py&lt;br&gt;get_gpsdistance()&lt;br&gt;get_gpsazimuth()&lt;br&gt;gpsの緯度経度からゴールまでの直線距離（ｍ）と方位角を求める" style="rounded=0;whiteSpace=wrap;html=1;fillColor=#dae8fc;strokeColor=#6c8ebf;" parent="1" vertex="1">
                    <mxGeometry x="1540" y="365" width="230" height="72.5" as="geometry"/>
                </mxCell>
                <mxCell id="84" style="edgeStyle=none;html=1;exitX=0.5;exitY=0;exitDx=0;exitDy=0;entryX=0.5;entryY=1;entryDx=0;entryDy=0;fontSize=17;fontColor=#ed0c0c;" parent="1" source="24" target="19" edge="1">
                    <mxGeometry relative="1" as="geometry"/>
                </mxCell>
                <mxCell id="98" style="edgeStyle=none;html=1;exitX=0.5;exitY=1;exitDx=0;exitDy=0;entryX=0.5;entryY=0;entryDx=0;entryDy=0;" parent="1" source="24" target="21" edge="1">
                    <mxGeometry relative="1" as="geometry"/>
                </mxCell>
                <mxCell id="110" style="edgeStyle=none;html=1;exitX=1;exitY=0.5;exitDx=0;exitDy=0;entryX=0;entryY=0.5;entryDx=0;entryDy=0;" parent="1" source="24" target="23" edge="1">
                    <mxGeometry relative="1" as="geometry"/>
                </mxCell>
                <mxCell id="24" value="gps.py&lt;br&gt;&lt;span style=&quot;border-color: var(--border-color); background-color: initial;&quot;&gt;gps_latitude()、g&lt;/span&gt;&lt;span style=&quot;border-color: var(--border-color); background-color: initial;&quot;&gt;ps_longitude()、&lt;/span&gt;&lt;span style=&quot;border-color: var(--border-color); background-color: initial;&quot;&gt;gps_altitude()&lt;/span&gt;&lt;br&gt;gpsで緯度経度・海抜の値" style="rounded=0;whiteSpace=wrap;html=1;fillColor=#dae8fc;strokeColor=#6c8ebf;" parent="1" vertex="1">
                    <mxGeometry x="1197" y="375" width="264" height="60" as="geometry"/>
                </mxCell>
                <mxCell id="28" value="直線距離と方位角" style="text;html=1;strokeColor=none;fillColor=none;align=center;verticalAlign=middle;whiteSpace=wrap;rounded=0;" parent="1" vertex="1">
                    <mxGeometry x="1620" y="332.5" width="100" height="30" as="geometry"/>
                </mxCell>
                <mxCell id="29" value="緯度経度" style="text;html=1;align=center;verticalAlign=middle;resizable=0;points=[];autosize=1;strokeColor=none;fillColor=none;" parent="1" vertex="1">
                    <mxGeometry x="1294" y="332.5" width="70" height="30" as="geometry"/>
                </mxCell>
                <mxCell id="30" value="緯度経度・海抜" style="text;html=1;align=center;verticalAlign=middle;resizable=0;points=[];autosize=1;strokeColor=none;fillColor=none;" parent="1" vertex="1">
                    <mxGeometry x="1220" y="455" width="110" height="30" as="geometry"/>
                </mxCell>
                <mxCell id="32" style="edgeStyle=none;html=1;exitX=0.5;exitY=0;exitDx=0;exitDy=0;entryX=0.5;entryY=1;entryDx=0;entryDy=0;" parent="1" source="31" target="19" edge="1">
                    <mxGeometry relative="1" as="geometry"/>
                </mxCell>
                <mxCell id="50" style="edgeStyle=none;html=1;exitX=0.5;exitY=1;exitDx=0;exitDy=0;entryX=0.5;entryY=0;entryDx=0;entryDy=0;fontSize=12;" parent="1" source="31" target="21" edge="1">
                    <mxGeometry relative="1" as="geometry"/>
                </mxCell>
                <mxCell id="31" value="Distance.py&lt;br&gt;distance_result()&lt;br&gt;距離センサで求めた距離（cm）" style="rounded=0;whiteSpace=wrap;html=1;fillColor=#dae8fc;strokeColor=#6c8ebf;" parent="1" vertex="1">
                    <mxGeometry x="1780" y="372.5" width="130" height="60" as="geometry"/>
                </mxCell>
                <mxCell id="36" value="直線距離と方位角" style="text;html=1;align=center;verticalAlign=middle;resizable=0;points=[];autosize=1;strokeColor=none;fillColor=none;" parent="1" vertex="1">
                    <mxGeometry x="1650" y="450" width="120" height="30" as="geometry"/>
                </mxCell>
                <mxCell id="38" style="edgeStyle=none;html=1;exitX=0.5;exitY=0;exitDx=0;exitDy=0;entryX=0.5;entryY=1;entryDx=0;entryDy=0;" parent="1" source="37" target="19" edge="1">
                    <mxGeometry relative="1" as="geometry"/>
                </mxCell>
                <mxCell id="52" style="edgeStyle=none;html=1;exitX=0.5;exitY=1;exitDx=0;exitDy=0;entryX=0.5;entryY=0;entryDx=0;entryDy=0;fontSize=12;" parent="1" source="37" target="21" edge="1">
                    <mxGeometry relative="1" as="geometry"/>
                </mxCell>
                <mxCell id="39" value="距離（cm）" style="text;html=1;align=center;verticalAlign=middle;resizable=0;points=[];autosize=1;strokeColor=none;fillColor=none;" parent="1" vertex="1">
                    <mxGeometry x="1820" y="345" width="90" height="30" as="geometry"/>
                </mxCell>
                <mxCell id="40" value="加速度・速度・&lt;br&gt;角速度・方位角" style="text;html=1;align=center;verticalAlign=middle;resizable=0;points=[];autosize=1;strokeColor=none;fillColor=none;" parent="1" vertex="1">
                    <mxGeometry x="2789" y="332.5" width="110" height="40" as="geometry"/>
                </mxCell>
                <mxCell id="45" style="edgeStyle=none;html=1;exitX=0.5;exitY=0;exitDx=0;exitDy=0;entryX=0.5;entryY=1;entryDx=0;entryDy=0;fontSize=20;startArrow=none;" parent="1" source="37" target="19" edge="1">
                    <mxGeometry relative="1" as="geometry"/>
                </mxCell>
                <mxCell id="61" style="edgeStyle=none;html=1;exitX=0.5;exitY=0;exitDx=0;exitDy=0;entryX=0.5;entryY=1;entryDx=0;entryDy=0;fontSize=12;" parent="1" source="42" target="59" edge="1">
                    <mxGeometry relative="1" as="geometry"/>
                </mxCell>
                <mxCell id="42" value="ソースファイル名&lt;br&gt;呼び出す関数名&lt;br&gt;取得する値または機能" style="rounded=0;whiteSpace=wrap;html=1;" parent="1" vertex="1">
                    <mxGeometry x="756.25" y="142.5" width="132.5" height="60" as="geometry"/>
                </mxCell>
                <mxCell id="44" value="返却する値" style="text;html=1;align=center;verticalAlign=middle;resizable=0;points=[];autosize=1;strokeColor=none;fillColor=none;" parent="1" vertex="1">
                    <mxGeometry x="825" y="112.5" width="80" height="30" as="geometry"/>
                </mxCell>
                <mxCell id="51" value="距離（cm）" style="text;html=1;align=center;verticalAlign=middle;resizable=0;points=[];autosize=1;strokeColor=none;fillColor=none;" parent="1" vertex="1">
                    <mxGeometry x="1820" y="440" width="90" height="30" as="geometry"/>
                </mxCell>
                <mxCell id="53" value="加速度・速度・&lt;br&gt;角速度・地軸値" style="text;html=1;align=center;verticalAlign=middle;resizable=0;points=[];autosize=1;strokeColor=none;fillColor=none;" parent="1" vertex="1">
                    <mxGeometry x="2739" y="450" width="110" height="40" as="geometry"/>
                </mxCell>
                <mxCell id="57" style="edgeStyle=none;html=1;exitX=0.5;exitY=0;exitDx=0;exitDy=0;entryX=0.5;entryY=1;entryDx=0;entryDy=0;fontSize=12;" parent="1" source="56" target="19" edge="1">
                    <mxGeometry relative="1" as="geometry"/>
                </mxCell>
                <mxCell id="56" value="Camera.py&lt;br&gt;photograph()&lt;br&gt;カメラで写真を撮りバイナリデータに変換し、カメラログ用ファイルを作り機体にログを残す＆PCにXbeeで送信する" style="rounded=0;whiteSpace=wrap;html=1;fontSize=12;" parent="1" vertex="1">
                    <mxGeometry x="888.75" y="385" width="270" height="70" as="geometry"/>
                </mxCell>
                <mxCell id="59" value="呼び出す元のソースファイル名&lt;br&gt;取得する値または機能" style="rounded=0;whiteSpace=wrap;html=1;fontSize=12;" parent="1" vertex="1">
                    <mxGeometry x="730" y="37.5" width="185" height="60" as="geometry"/>
                </mxCell>
                <mxCell id="60" value="見方&lt;br&gt;" style="text;html=1;align=center;verticalAlign=middle;resizable=0;points=[];autosize=1;strokeColor=none;fillColor=none;fontSize=12;" parent="1" vertex="1">
                    <mxGeometry x="730" y="7.5" width="50" height="30" as="geometry"/>
                </mxCell>
                <mxCell id="62" value="なし" style="text;html=1;align=center;verticalAlign=middle;resizable=0;points=[];autosize=1;strokeColor=none;fillColor=none;fontSize=12;" parent="1" vertex="1">
                    <mxGeometry x="980" y="355" width="50" height="30" as="geometry"/>
                </mxCell>
                <mxCell id="64" style="edgeStyle=none;html=1;exitX=0.5;exitY=1;exitDx=0;exitDy=0;entryX=0.5;entryY=0;entryDx=0;entryDy=0;fontSize=12;" parent="1" source="63" target="21" edge="1">
                    <mxGeometry relative="1" as="geometry"/>
                </mxCell>
                <mxCell id="103" style="edgeStyle=none;html=1;exitX=0.5;exitY=0;exitDx=0;exitDy=0;entryX=0.5;entryY=1;entryDx=0;entryDy=0;" parent="1" source="118" target="19" edge="1">
                    <mxGeometry relative="1" as="geometry"/>
                </mxCell>
                <mxCell id="106" style="edgeStyle=none;html=1;exitX=0;exitY=0.5;exitDx=0;exitDy=0;entryX=1;entryY=0.5;entryDx=0;entryDy=0;" parent="1" source="63" target="31" edge="1">
                    <mxGeometry relative="1" as="geometry"/>
                </mxCell>
                <mxCell id="63" value="Temperature.py&lt;br style=&quot;border-color: var(--border-color);&quot;&gt;Temperature_result()&lt;br style=&quot;border-color: var(--border-color);&quot;&gt;外気の温度・湿度・気圧を測る" style="rounded=0;whiteSpace=wrap;html=1;fontSize=12;fillColor=#CCE5FF;" parent="1" vertex="1">
                    <mxGeometry x="1960" y="371.25" width="240" height="60" as="geometry"/>
                </mxCell>
                <mxCell id="65" value="温度・気圧・高度" style="text;html=1;align=center;verticalAlign=middle;resizable=0;points=[];autosize=1;strokeColor=none;fillColor=none;fontSize=12;" parent="1" vertex="1">
                    <mxGeometry x="2290" y="430" width="120" height="30" as="geometry"/>
                </mxCell>
                <mxCell id="70" style="edgeStyle=none;html=1;exitX=0.5;exitY=0;exitDx=0;exitDy=0;entryX=0.5;entryY=1;entryDx=0;entryDy=0;fontSize=12;" parent="1" source="69" target="19" edge="1">
                    <mxGeometry relative="1" as="geometry"/>
                </mxCell>
                <mxCell id="69" value="SoilMoisture.py&lt;br&gt;SoilMois_result()&lt;br&gt;&lt;span style=&quot;&quot;&gt;電圧、電流、電力、シャント電圧&lt;/span&gt;" style="rounded=0;whiteSpace=wrap;html=1;fontSize=12;" parent="1" vertex="1">
                    <mxGeometry x="550" y="390" width="310" height="60" as="geometry"/>
                </mxCell>
                <mxCell id="71" value="静電容量値" style="text;html=1;align=center;verticalAlign=middle;resizable=0;points=[];autosize=1;strokeColor=none;fillColor=none;fontSize=12;" parent="1" vertex="1">
                    <mxGeometry x="676.25" y="355" width="80" height="30" as="geometry"/>
                </mxCell>
                <mxCell id="78" value="&lt;font style=&quot;font-size: 17px;&quot; color=&quot;#ed0c0c&quot;&gt;未完成&lt;/font&gt;" style="text;html=1;align=center;verticalAlign=middle;resizable=0;points=[];autosize=1;strokeColor=none;fillColor=none;fontSize=12;" parent="1" vertex="1">
                    <mxGeometry x="2849" y="455" width="70" height="30" as="geometry"/>
                </mxCell>
                <mxCell id="83" value="&lt;h1 style=&quot;border-color: var(--border-color);&quot;&gt;プログラム実行前にやること&lt;/h1&gt;&lt;div&gt;DistanceMeasurement.pyにゴールの緯度経度を入力&lt;/div&gt;&lt;p&gt;&lt;br&gt;&lt;/p&gt;" style="text;html=1;strokeColor=none;fillColor=none;spacing=5;spacingTop=-20;whiteSpace=wrap;overflow=hidden;rounded=0;fontColor=#fb0404;" parent="1" vertex="1">
                    <mxGeometry x="2250" y="50" width="190" height="120" as="geometry"/>
                </mxCell>
                <mxCell id="85" value="緯度経度" style="text;html=1;align=center;verticalAlign=middle;resizable=0;points=[];autosize=1;strokeColor=none;fillColor=none;" parent="1" vertex="1">
                    <mxGeometry x="1461" y="375" width="70" height="30" as="geometry"/>
                </mxCell>
                <mxCell id="37" value="NineAxis.py&lt;br&gt;&lt;span style=&quot;border-color: var(--border-color); background-color: initial;&quot;&gt;AccelerationSpeed()、&lt;/span&gt;&lt;span style=&quot;border-color: var(--border-color); background-color: initial;&quot;&gt;AngularVelocity()、&lt;/span&gt;&lt;span style=&quot;border-color: var(--border-color); background-color: initial;&quot;&gt;&lt;br style=&quot;border-color: var(--border-color);&quot;&gt;&lt;/span&gt;&lt;span style=&quot;border-color: var(--border-color); background-color: initial;&quot;&gt;Azimuth()&lt;/span&gt;&lt;br&gt;9軸で求めた加速度・速度・角速度・地軸値" style="rounded=0;whiteSpace=wrap;html=1;fillColor=#dae8fc;strokeColor=#6c8ebf;" parent="1" vertex="1">
                    <mxGeometry x="2679" y="375" width="330" height="60" as="geometry"/>
                </mxCell>
                <mxCell id="101" style="edgeStyle=none;html=1;exitX=0;exitY=0.75;exitDx=0;exitDy=0;entryX=1;entryY=0.75;entryDx=0;entryDy=0;" parent="1" source="99" target="19" edge="1">
                    <mxGeometry relative="1" as="geometry"/>
                </mxCell>
                <mxCell id="99" value="ManualMain.py&lt;br&gt;ゴールまで機体を手動で移動させる&lt;br&gt;青い四角のセンサについてのログを機体に残す" style="rounded=0;whiteSpace=wrap;html=1;" parent="1" vertex="1">
                    <mxGeometry x="1890" y="147.5" width="261" height="60" as="geometry"/>
                </mxCell>
                <mxCell id="107" value="&lt;span style=&quot;color: rgb(0, 0, 0); font-family: Helvetica; font-size: 12px; font-style: normal; font-variant-ligatures: normal; font-variant-caps: normal; font-weight: 400; letter-spacing: normal; orphans: 2; text-align: center; text-indent: 0px; text-transform: none; widows: 2; word-spacing: 0px; -webkit-text-stroke-width: 0px; background-color: rgb(251, 251, 251); text-decoration-thickness: initial; text-decoration-style: initial; text-decoration-color: initial; float: none; display: inline !important;&quot;&gt;温度&lt;/span&gt;" style="text;whiteSpace=wrap;html=1;" parent="1" vertex="1">
                    <mxGeometry x="1930" y="375" width="60" height="40" as="geometry"/>
                </mxCell>
                <mxCell id="112" style="edgeStyle=none;html=1;exitX=0.5;exitY=1;exitDx=0;exitDy=0;" parent="1" source="111" edge="1">
                    <mxGeometry relative="1" as="geometry">
                        <mxPoint x="1700" y="620" as="targetPoint"/>
                    </mxGeometry>
                </mxCell>
                <mxCell id="111" value="Battery.py&lt;br&gt;BatteryTemp_result()&lt;br&gt;バッテリーの電池残量を測る" style="rounded=0;whiteSpace=wrap;html=1;fontSize=12;fillColor=#CCE5FF;" parent="1" vertex="1">
                    <mxGeometry x="2481" y="367.5" width="179" height="60" as="geometry"/>
                </mxCell>
                <mxCell id="114" value="高度" style="text;html=1;align=center;verticalAlign=middle;resizable=0;points=[];autosize=1;strokeColor=none;fillColor=none;" vertex="1" parent="1">
                    <mxGeometry x="2280" y="335" width="50" height="30" as="geometry"/>
                </mxCell>
                <mxCell id="116" value="電池残量" style="text;html=1;align=center;verticalAlign=middle;resizable=0;points=[];autosize=1;strokeColor=none;fillColor=none;" vertex="1" parent="1">
                    <mxGeometry x="2520" y="430" width="70" height="30" as="geometry"/>
                </mxCell>
                <mxCell id="117" value="&lt;font style=&quot;font-size: 17px;&quot; color=&quot;#ed0c0c&quot;&gt;未完成&lt;/font&gt;" style="text;html=1;align=center;verticalAlign=middle;resizable=0;points=[];autosize=1;strokeColor=none;fillColor=none;fontSize=12;" vertex="1" parent="1">
                    <mxGeometry x="670" y="460" width="70" height="30" as="geometry"/>
                </mxCell>
                <mxCell id="119" style="edgeStyle=none;html=1;exitX=0.5;exitY=1;exitDx=0;exitDy=0;" edge="1" parent="1" source="118">
                    <mxGeometry relative="1" as="geometry">
                        <mxPoint x="1700" y="620" as="targetPoint"/>
                    </mxGeometry>
                </mxCell>
                <mxCell id="118" value="BarometicPress.py&lt;br style=&quot;border-color: var(--border-color);&quot;&gt;get_pressure_altitude_temperature()&lt;br style=&quot;border-color: var(--border-color);&quot;&gt;外気の温度・気圧・高度を測る" style="rounded=0;whiteSpace=wrap;html=1;fontSize=12;fillColor=#CCE5FF;" vertex="1" parent="1">
                    <mxGeometry x="2220" y="370" width="240" height="60" as="geometry"/>
                </mxCell>
                <mxCell id="120" value="温度・湿度・気圧" style="text;html=1;align=center;verticalAlign=middle;resizable=0;points=[];autosize=1;strokeColor=none;fillColor=none;fontSize=12;" vertex="1" parent="1">
                    <mxGeometry x="2020" y="431.25" width="120" height="30" as="geometry"/>
                </mxCell>
            </root>
        </mxGraphModel>
    </diagram>
</mxfile>